<?xml version="1.0" encoding="utf-8"?>
<svg version="1.0" width="749.000000pt" height="725.000000pt" viewBox="0 0 749.000000 725.000000" preserveAspectRatio="xMidYMid meet" xmlns="http://www.w3.org/2000/svg">
  <defs>
    <filter id="drop-shadow-filter-0" x="-500%" y="-500%" width="1000%" height="1000%">
      <feGaussianBlur in="SourceAlpha" stdDeviation="0"/>
      <feOffset dx="10" dy="10"/>
      <feComponentTransfer result="offsetblur">
        <feFuncA id="spread-ctrl" type="linear" slope="0.56"/>
      </feComponentTransfer>
      <feFlood flood-color="rgba(0,0,0,0.3)"/>
      <feComposite in2="offsetblur" operator="in"/>
      <feMerge>
        <feMergeNode/>
        <feMergeNode in="SourceGraphic"/>
      </feMerge>
    </filter>
    <radialGradient gradientUnits="userSpaceOnUse" cx="3958.22" cy="4874.006" r="3110.301" id="gradient-0" gradientTransform="matrix(0.226962, 0.471193, -0.93435, 0.450052, 7542.249023, 815.363046)">
      <stop offset="0" style="stop-color: rgb(65, 246, 74);"/>
      <stop offset="0.6" style="stop-color: rgb(119, 140, 235);"/>
      <stop offset="1" style="stop-color: rgb(86, 110, 231);"/>
    </radialGradient>
  </defs>
  <g transform="translate(0.000000,725.000000) scale(0.100000,-0.100000)" fill="#000000" stroke="none" style="filter: url(#drop-shadow-filter-0);">
    <path d="M1597 6686 c-119 -43 -182 -147 -163 -268 25 -157 200 -242 346 -168 l42 21 111 -85 c62 -47 263 -202 447 -344 l335 -258 -3 -65 c-3 -44 1 -78 12 -103 9 -21 16 -40 16 -42 0 -1 -131 -157 -291 -346 -237 -280 -294 -342 -312 -340 -161 23 -251 8 -333 -55 -25 -19 -49 -33 -53 -31 -4 2 -170 119 -369 261 l-362 259 0 59 c0 102 -45 164 -139 189 -60 16 -122 -2 -171 -49 -117 -112 -38 -311 123 -313 23 -1 51 2 63 6 16 5 100 -51 400 -265 314 -224 379 -274 377 -292 -2 -12 -6 -47 -9 -78 -8 -73 9 -143 52 -215 l35 -58 -28 -27 c-15 -15 -202 -188 -415 -386 l-387 -358 -53 3 c-99 5 -168 -61 -168 -161 0 -133 133 -207 247 -137 47 28 67 66 73 135 l5 61 423 393 423 393 44 -11 c98 -25 167 -14 301 45 6 3 112 -102 235 -233 122 -131 241 -257 262 -280 l40 -42 -18 -38 c-30 -61 -31 -140 -5 -202 67 -154 272 -191 387 -70 44 47 63 98 63 171 l0 63 526 348 526 349 41 -41 c59 -59 133 -84 222 -78 39 3 79 8 90 12 18 5 62 -47 305 -356 157 -199 291 -370 298 -380 10 -14 10 -28 1 -64 -10 -38 -9 -53 5 -90 38 -98 134 -138 223 -94 62 32 85 65 91 133 3 43 0 62 -18 94 -26 47 -84 82 -133 82 -37 0 -54 21 -629 757 -7 8 -1 30 16 66 83 168 6 359 -167 418 -47 16 -52 21 -50 46 4 60 84 839 89 860 3 14 19 29 47 41 39 17 76 52 102 96 9 16 40 15 440 -14 236 -17 430 -32 431 -33 0 -1 233 -261 516 -578 424 -474 516 -583 522 -613 9 -49 43 -86 86 -92 122 -18 162 177 44 216 -27 9 -141 132 -535 571 -275 308 -499 565 -496 572 3 7 100 161 215 342 l209 330 59 5 c99 9 149 50 175 143 28 105 -69 227 -181 227 -78 0 -153 -58 -176 -137 -14 -49 -14 -59 -1 -100 l15 -45 -220 -347 c-121 -190 -221 -347 -222 -349 -8 -7 -882 62 -885 70 -2 6 -17 25 -33 43 -41 47 -104 69 -173 61 l-55 -6 -178 237 c-177 235 -178 238 -166 268 37 87 -4 197 -91 242 -38 20 -122 20 -160 0 -39 -20 -81 -65 -94 -100 -16 -40 -13 -103 4 -137 15 -29 15 -30 -22 -64 -21 -19 -189 -171 -373 -339 l-335 -304 -40 19 c-53 23 -138 23 -192 -2 l-42 -19 -454 349 -454 349 0 64 c1 113 -62 201 -167 232 -60 18 -89 18 -139 1z m2613 -646 l185 -245 -3 -66 c-4 -77 13 -127 57 -168 l29 -28 -49 -464 c-26 -255 -49 -469 -49 -475 0 -6 -22 -21 -49 -33 l-48 -23 -559 427 c-311 238 -557 432 -554 438 2 7 5 50 6 97 l1 85 387 350 c364 329 389 350 424 350 38 0 39 -1 222 -245z m-392 -1325 c321 -244 381 -293 376 -310 -3 -11 -8 -49 -11 -84 -5 -61 -7 -64 -47 -92 -22 -16 -265 -177 -538 -358 l-498 -328 -47 24 c-39 19 -61 24 -116 22 l-68 -2 -273 292 -274 292 21 52 c40 104 22 245 -43 335 l-28 39 284 336 284 335 77 -5 c56 -4 88 -1 113 9 l35 15 185 -141 c102 -78 358 -271 568 -431z" style="paint-order: fill; fill-rule: nonzero; fill: url(#gradient-0);"/>
    <path d="M721 2365 c-29 -13 -32 -18 -26 -42 20 -86 190 -468 385 -870 105 -217 114 -227 157 -180 28 30 60 95 149 304 41 98 81 184 89 192 11 11 16 7 34 -27 11 -22 39 -86 61 -143 58 -146 157 -346 175 -353 45 -17 71 30 225 412 73 180 161 397 197 482 35 85 65 170 66 189 2 30 -2 36 -26 45 -21 8 -31 7 -43 -6 -9 -8 -49 -96 -89 -194 -40 -99 -109 -269 -154 -379 -45 -109 -86 -215 -91 -235 -5 -20 -16 -44 -24 -55 -13 -18 -16 -14 -49 51 -40 80 -134 298 -208 482 -27 67 -72 167 -99 222 -56 111 -65 116 -135 83 -44 -21 -46 -14 41 -226 40 -99 64 -171 64 -196 0 -27 -19 -77 -63 -167 -35 -71 -76 -159 -92 -196 -15 -38 -32 -68 -36 -68 -4 0 -11 10 -15 23 -23 74 -343 750 -394 835 -22 36 -45 40 -99 17z" style="paint-order: fill; fill-rule: nonzero; fill: rgb(86, 110, 231);"/>
    <path d="M3883 2365 c-19 -8 -33 -21 -33 -31 0 -44 236 -576 412 -927 69 -139 81 -158 101 -155 35 5 75 76 170 300 49 114 95 212 102 218 17 14 24 1 95 -175 64 -158 157 -345 177 -352 20 -8 51 25 83 87 15 30 95 222 178 425 83 204 167 408 186 455 19 47 37 101 38 120 3 30 0 35 -30 43 -20 6 -36 6 -42 1 -11 -12 -298 -715 -336 -824 -11 -30 -24 -55 -29 -55 -18 0 -98 176 -256 561 -31 78 -76 178 -98 223 -35 68 -45 81 -66 81 -33 0 -95 -31 -95 -47 0 -7 32 -93 71 -189 60 -148 70 -183 66 -217 -3 -22 -39 -110 -80 -196 -41 -86 -80 -171 -87 -188 -7 -18 -16 -33 -19 -33 -4 0 -28 46 -53 103 -116 260 -272 591 -320 682 -59 110 -72 118 -135 90z" style="paint-order: fill; fill-rule: nonzero; fill: rgb(86, 110, 231);"/>
    <path d="M2405 1944 c-69 -17 -105 -36 -105 -58 0 -12 6 -30 13 -39 11 -16 17 -16 90 -1 91 19 151 13 198 -19 51 -35 70 -68 76 -134 l6 -60 -109 -6 c-222 -10 -334 -84 -334 -219 0 -72 28 -114 100 -151 77 -40 152 -34 258 19 43 22 80 41 85 42 4 2 7 -5 7 -16 0 -43 10 -52 61 -52 38 0 51 4 59 19 13 26 13 395 -1 459 -5 28 -25 74 -42 103 -26 43 -44 59 -91 83 -51 27 -70 31 -155 33 -53 1 -105 0 -116 -3z m275 -455 c0 -78 -1 -82 -31 -110 -86 -80 -269 -57 -269 33 0 76 57 119 187 142 123 22 113 28 113 -65z" style="paint-order: fill; fill-rule: nonzero; fill: rgb(86, 110, 231);"/>
    <path d="M3280 1925 c-91 -30 -87 -30 -95 -4 -6 19 -12 21 -58 14 -29 -3 -54 -11 -58 -16 -11 -19 -20 -370 -13 -521 l7 -149 66 3 66 3 1 279 c0 328 -9 305 126 313 74 4 88 2 128 -19 33 -18 51 -38 70 -73 24 -48 25 -57 28 -278 l4 -228 66 3 67 3 3 224 c3 245 -7 312 -53 382 -56 85 -209 113 -355 64z" style="paint-order: fill; fill-rule: nonzero; fill: rgb(86, 110, 231);"/>
    <path d="M5529 1935 c-63 -17 -69 -22 -69 -54 0 -47 17 -52 104 -35 90 19 150 13 197 -19 47 -31 71 -78 73 -140 l1 -52 -105 -7 c-146 -9 -265 -53 -304 -113 -8 -13 -20 -45 -26 -70 -15 -67 1 -116 51 -158 81 -70 183 -73 306 -11 40 20 76 37 80 37 4 0 10 -12 13 -29 5 -27 9 -29 51 -32 77 -5 79 -1 79 217 0 197 -10 282 -40 341 -28 54 -92 107 -151 124 -63 19 -195 20 -260 1z m309 -436 c2 -36 -2 -77 -7 -91 -13 -36 -101 -78 -162 -78 -87 0 -129 29 -129 88 0 72 55 112 187 136 110 20 108 22 111 -55z" style="paint-order: fill; fill-rule: nonzero; fill: rgb(86, 110, 231);"/>
    <path d="M6138 1934 c-18 -9 -28 -23 -28 -37 0 -22 241 -392 309 -474 17 -20 31 -44 31 -51 0 -14 -54 -118 -167 -324 -36 -64 -63 -125 -61 -135 3 -19 63 -44 85 -36 19 8 40 44 199 353 83 162 197 384 253 492 l102 197 -30 15 c-16 9 -37 16 -45 16 -18 0 -57 -63 -157 -256 -87 -167 -105 -190 -123 -161 -56 93 -231 350 -259 380 -38 40 -64 46 -109 21z" style="paint-order: fill; fill-rule: nonzero; fill: rgb(86, 110, 231);"/>
    <path d="M3710 1037 c0 -23 23 -37 61 -37 35 0 69 20 69 41 0 15 -19 10 -40 -11 -11 -11 -24 -20 -30 -20 -5 0 -19 9 -30 20 -23 23 -30 25 -30 7z" style="paint-order: fill; fill-rule: nonzero; fill: rgb(86, 110, 231);"/>
    <path d="M1365 946 c-55 -55 -37 -156 30 -175 42 -11 95 -4 95 13 0 7 -17 10 -49 8 -42 -3 -51 0 -65 19 -29 42 -22 49 55 49 l72 0 -6 38 c-12 69 -84 96 -132 48z m83 -12 c12 -8 22 -24 22 -35 0 -16 -7 -19 -48 -19 -57 0 -65 5 -50 34 20 39 41 45 76 20z" style="paint-order: fill; fill-rule: nonzero; fill: rgb(86, 110, 231);"/>
    <path d="M1608 956 c-16 -8 -28 -11 -28 -5 0 5 -4 9 -10 9 -6 0 -10 -53 -10 -140 0 -87 4 -140 10 -140 6 0 10 25 10 55 0 30 2 55 3 55 2 0 17 -7 34 -15 81 -40 146 62 98 154 -22 43 -58 52 -107 27z m72 -26 c25 -25 27 -95 3 -122 -19 -22 -66 -24 -83 -3 -6 8 -12 35 -13 61 0 38 4 51 22 66 30 23 46 23 71 -2z" style="paint-order: fill; fill-rule: nonzero; fill: rgb(86, 110, 231);"/>
    <path d="M2064 958 c-28 -13 -44 -49 -44 -97 0 -69 57 -111 126 -92 45 12 38 26 -12 23 -50 -4 -84 16 -84 50 0 16 9 18 71 18 l71 0 -7 33 c-12 61 -68 91 -121 65z m68 -20 c9 -7 18 -22 20 -33 3 -18 -3 -20 -49 -23 -59 -3 -69 12 -33 48 23 23 40 25 62 8z" style="paint-order: fill; fill-rule: nonzero; fill: rgb(86, 110, 231);"/>
    <path d="M2842 954 c-12 -8 -22 -10 -22 -5 0 6 -7 11 -15 11 -13 0 -15 -22 -15 -140 0 -118 2 -140 15 -140 11 0 15 13 15 54 l0 54 30 -14 c51 -26 94 -4 110 58 26 93 -49 171 -118 122z m69 -23 c19 -15 24 -29 24 -64 0 -52 -17 -77 -53 -77 -40 0 -62 27 -62 75 0 42 13 69 40 78 24 9 27 8 51 -12z" style="paint-order: fill; fill-rule: nonzero; fill: rgb(86, 110, 231);"/>
    <path d="M3060 957 c-13 -7 -31 -29 -39 -50 -32 -84 34 -165 111 -138 43 15 57 39 58 93 0 60 -6 76 -41 93 -34 18 -56 19 -89 2z m76 -22 c29 -19 37 -68 19 -111 -12 -29 -19 -34 -48 -34 -42 0 -57 17 -64 69 -5 33 -1 44 20 65 30 30 44 32 73 11z" style="paint-order: fill; fill-rule: nonzero; fill: rgb(86, 110, 231);"/>
    <path d="M3503 960 c-35 -15 -27 -22 16 -15 29 5 42 2 55 -11 29 -28 16 -48 -35 -54 -60 -7 -81 -25 -77 -64 4 -45 46 -63 91 -41 20 10 33 12 35 5 2 -5 8 -10 13 -10 11 0 12 160 1 178 -11 17 -71 24 -99 12z m83 -105 c10 -26 -23 -65 -56 -65 -55 0 -59 60 -5 73 39 9 56 7 61 -8z" style="paint-order: fill; fill-rule: nonzero; fill: rgb(86, 110, 231);"/>
    <path d="M4165 946 c-55 -55 -37 -156 30 -175 42 -11 95 -4 95 13 0 7 -17 10 -49 8 -42 -3 -51 0 -65 19 -29 42 -22 49 55 49 l72 0 -6 38 c-12 69 -84 96 -132 48z m87 -13 c10 -9 18 -24 18 -35 0 -15 -8 -18 -49 -18 -28 0 -52 4 -55 9 -8 13 33 61 51 61 9 0 25 -7 35 -17z" style="paint-order: fill; fill-rule: nonzero; fill: rgb(86, 110, 231);"/>
    <path d="M4408 956 c-16 -8 -28 -11 -28 -5 0 5 -4 9 -10 9 -6 0 -10 -53 -10 -140 0 -87 4 -140 10 -140 6 0 10 25 10 55 0 30 2 55 3 55 2 0 17 -7 34 -15 81 -40 146 62 98 154 -22 43 -58 52 -107 27z m72 -26 c25 -25 27 -95 3 -122 -19 -22 -66 -24 -83 -3 -6 8 -12 35 -13 61 0 38 4 51 22 66 30 23 46 23 71 -2z" style="paint-order: fill; fill-rule: nonzero; fill: rgb(86, 110, 231);"/>
    <path d="M690 865 c0 -125 15 -127 87 -12 l52 82 1 -82 c0 -67 3 -83 15 -83 12 0 15 17 15 95 0 92 -1 95 -22 94 -17 0 -36 -20 -73 -77 l-50 -77 -3 78 c-4 110 -22 96 -22 -18z" style="paint-order: fill; fill-rule: nonzero; fill: rgb(86, 110, 231);"/>
    <path d="M930 865 c0 -78 3 -95 15 -95 11 0 15 12 15 45 l0 45 55 0 55 0 0 -45 c0 -33 4 -45 15 -45 12 0 15 17 15 95 0 78 -3 95 -15 95 -11 0 -15 -11 -15 -40 l0 -40 -55 0 -55 0 0 40 c0 29 -4 40 -15 40 -12 0 -15 -17 -15 -95z" style="paint-order: fill; fill-rule: nonzero; fill: rgb(86, 110, 231);"/>
    <path d="M1140 950 c0 -5 16 -10 35 -10 l35 0 0 -85 c0 -69 3 -85 15 -85 12 0 15 16 15 85 l0 85 30 0 c17 0 30 5 30 10 0 6 -33 10 -80 10 -47 0 -80 -4 -80 -10z" style="paint-order: fill; fill-rule: nonzero; fill: rgb(86, 110, 231);"/>
    <path d="M1790 865 c0 -78 3 -95 15 -95 11 0 15 12 15 45 l0 45 55 0 55 0 0 -45 c0 -33 4 -45 15 -45 12 0 15 17 15 95 0 78 -3 95 -15 95 -11 0 -15 -11 -15 -40 l0 -40 -55 0 -55 0 0 40 c0 29 -4 40 -15 40 -12 0 -15 -17 -15 -95z" style="paint-order: fill; fill-rule: nonzero; fill: rgb(86, 110, 231);"/>
    <path d="M2220 950 c0 -5 14 -10 30 -10 l30 0 0 -85 c0 -69 3 -85 15 -85 12 0 15 16 15 85 l0 85 35 0 c19 0 35 5 35 10 0 6 -33 10 -80 10 -47 0 -80 -4 -80 -10z" style="paint-order: fill; fill-rule: nonzero; fill: rgb(86, 110, 231);"/>
    <path d="M2560 865 c0 -57 4 -95 10 -95 6 0 10 35 10 85 l0 85 55 0 55 0 0 -85 c0 -69 3 -85 15 -85 12 0 15 17 15 95 l0 95 -80 0 -80 0 0 -95z" style="paint-order: fill; fill-rule: nonzero; fill: rgb(86, 110, 231);"/>
    <path d="M3250 865 l0 -95 65 0 c52 0 69 4 85 20 26 26 25 44 -2 69 -19 18 -19 21 -5 27 20 7 22 45 5 62 -7 7 -40 12 -80 12 l-68 0 0 -95z m128 51 c5 -24 -14 -36 -60 -36 -36 0 -38 2 -38 31 0 30 1 30 47 27 37 -2 49 -7 51 -22z m-4 -72 c31 -31 9 -54 -51 -54 -42 0 -43 0 -43 35 0 34 1 35 39 35 23 0 46 -7 55 -16z" style="paint-order: fill; fill-rule: nonzero; fill: rgb(86, 110, 231);"/>
    <path d="M3680 865 c0 -89 1 -95 20 -95 15 0 35 24 73 82 l52 83 3 -83 c4 -114 22 -104 22 13 0 86 -2 95 -18 95 -13 0 -36 -28 -70 -82 l-52 -83 0 83 c0 66 -3 82 -15 82 -12 0 -15 -17 -15 -95z" style="paint-order: fill; fill-rule: nonzero; fill: rgb(86, 110, 231);"/>
    <path d="M3965 918 c-8 -49 -43 -128 -56 -128 -5 0 -9 -20 -9 -45 0 -33 4 -45 15 -45 10 0 15 11 15 35 l0 35 70 0 70 0 0 -35 c0 -24 5 -35 15 -35 11 0 15 12 15 45 0 33 -4 45 -15 45 -12 0 -15 16 -15 85 l0 85 -49 0 -49 0 -7 -42z m75 -53 l0 -75 -45 0 c-25 0 -45 1 -45 3 0 1 9 26 20 55 11 29 20 61 20 72 0 15 7 20 25 20 24 0 25 -2 25 -75z" style="paint-order: fill; fill-rule: nonzero; fill: rgb(86, 110, 231);"/>
    <path d="M2410 864 c0 -12 9 -14 42 -12 59 4 63 28 4 28 -35 0 -46 -4 -46 -16z" style="paint-order: fill; fill-rule: nonzero; fill: rgb(86, 110, 231);"/>
  </g>
</svg>